<svg width="1440" height="800" viewBox="0 0 1440 800" fill="none" xmlns="http://www.w3.org/2000/svg">
<g clip-path="url(#clip0_79_757)">
<g style="mix-blend-mode:overlay" opacity="0.3">
<path fill-rule="evenodd" clip-rule="evenodd" d="M1094.24 322.639C1240.22 269.997 1265.06 132.868 1246.43 6.7878C1246.43 2.23851 1250.16 -1.01099 1253.88 0.288811C1393.64 71.7777 1550.8 227.753 1550.8 461.717C1550.8 641.089 1417.87 799.664 1224.69 799.664C1155.76 802.944 1087.74 782.112 1031.38 740.456C975.023 698.801 933.527 638.694 913.445 569.623C893.362 500.552 895.836 426.451 920.477 359.014C945.117 291.578 990.521 234.647 1049.52 197.208C1053.25 194.609 1058.22 197.208 1058.22 201.757C1060.08 225.804 1066.29 286.244 1091.76 322.639H1094.24V322.639Z" fill="white"/>
</g>
<path d="M113 591.61L144.644 392.424H197.76L236.75 527.757H227.143L309.078 392.424H362.194L330.55 591.61H275.457L292.409 483.965H305.97L238.162 591.61H204.541L170.637 483.965H185.046L168.094 591.61H113Z" fill="url(#paint0_linear_79_757)"/>
<path d="M355.018 591.61L481.311 392.424H530.754L594.324 591.61H535.274L520.018 537.646L540.36 554.598H424.804L449.949 537.646L417.741 591.61H355.018ZM497.98 454.581L457.86 524.367L451.927 508.545H527.929L517.757 524.367L499.393 454.581H497.98Z" fill="url(#paint1_linear_79_757)"/>
<path d="M640.156 591.61L663.889 441.585H606.252L614.163 392.424H790.464L782.553 441.585H724.916L701.183 591.61H640.156Z" fill="url(#paint2_linear_79_757)"/>
<path d="M892.853 595C868.744 595 848.966 590.197 833.521 580.591C818.076 570.985 807.151 557.988 800.747 541.601C794.532 525.026 793.025 506.567 796.227 486.225C799.429 465.694 806.398 448.177 817.134 433.674C827.871 418.982 841.715 407.869 858.667 400.335C875.807 392.612 895.208 388.845 916.868 389.033C929.488 389.222 941.072 390.917 951.62 394.119C962.168 397.321 970.832 401.371 977.613 406.268L958.118 454.016C950.584 449.684 943.521 446.576 936.928 444.692C930.524 442.809 923.084 441.867 914.608 441.867C900.293 441.867 888.144 445.823 878.161 453.733C868.367 461.456 862.245 472.852 859.797 487.92C858.102 499.221 858.572 508.922 861.209 517.021C863.846 525.12 868.555 531.336 875.336 535.668C882.117 540 890.781 542.166 901.329 542.166C909.052 542.166 916.68 541.13 924.214 539.058C931.937 536.798 940.225 532.843 949.077 527.192L964.051 574.94C954.069 581.344 943.05 586.336 930.995 589.914C918.94 593.305 906.226 595 892.853 595Z" fill="url(#paint3_linear_79_757)"/>
<path d="M994.726 591.61L1026.37 392.424H1087.4L1075.53 465.882H1143.62L1155.49 392.424H1216.51L1184.87 591.61H1123.84L1135.99 515.608H1067.9L1055.75 591.61H994.726Z" fill="url(#paint4_linear_79_757)"/>
<path d="M1252.41 519.564L1254.11 392.424H1326.16L1287.73 519.564H1252.41ZM1228.68 591.61L1238 533.125H1297.62L1288.3 591.61H1228.68Z" fill="url(#paint5_linear_79_757)"/>
<path d="M500.77 304.73L516.349 206.669H546.393L530.815 304.73H500.77Z" fill="url(#paint6_linear_79_757)"/>
<path d="M570.321 304.73L582.005 230.871H553.63L557.525 206.669H644.319L640.424 230.871H612.049L600.366 304.73H570.321Z" fill="url(#paint7_linear_79_757)"/>
<path d="M660.744 258.69L651.564 248.814C655.737 245.291 658.843 242.092 660.883 239.217C662.923 236.342 664.407 232.726 665.334 228.368L670.341 235.461H650.034L654.624 206.669H683.972L680.773 226.699C680.124 230.964 679.058 234.905 677.574 238.521C676.183 242.045 674.143 245.43 671.454 248.675C668.858 251.921 665.288 255.259 660.744 258.69Z" fill="url(#paint8_linear_79_757)"/>
<path d="M723.202 306.399C716.062 306.399 709.015 305.611 702.06 304.034C695.198 302.365 689.588 300.186 685.23 297.497L694.271 274.408C698.351 276.355 703.219 278.117 708.876 279.693C714.625 281.269 720.328 282.058 725.984 282.058C731.455 282.058 735.211 281.501 737.251 280.389C739.291 279.183 740.45 277.699 740.728 275.938C740.913 274.454 740.542 273.202 739.615 272.182C738.781 271.069 736.972 270.281 734.191 269.817L717.082 266.757C709.015 265.274 702.709 261.935 698.165 256.743C693.714 251.457 692.138 244.734 693.436 236.574C694.549 229.898 697.145 224.241 701.225 219.605C705.398 214.876 710.823 211.259 717.499 208.756C724.269 206.252 732.058 205 740.867 205C746.987 205 753.015 205.742 758.949 207.225C764.884 208.616 769.567 210.656 772.998 213.346L763.539 235.879C760.386 234.024 756.631 232.494 752.273 231.289C748.007 229.99 743.139 229.341 737.668 229.341C733.031 229.341 729.461 229.898 726.958 231.01C724.547 232.03 723.156 233.607 722.785 235.74C722.599 236.945 722.97 238.197 723.898 239.495C724.825 240.793 726.819 241.721 729.879 242.277L746.709 245.198C755.24 246.682 761.592 250.02 765.765 255.213C770.03 260.405 771.514 267.036 770.216 275.103C769.288 281.223 766.831 286.648 762.844 291.377C758.949 296.106 753.664 299.815 746.987 302.504C740.311 305.101 732.382 306.399 723.202 306.399Z" fill="url(#paint9_linear_79_757)"/>
<path d="M810.333 304.73L872.508 206.669H896.849L928.145 304.73H899.075L891.564 278.163L901.578 286.509H844.689L857.069 278.163L841.212 304.73H810.333ZM880.714 237.27L860.963 271.626L858.042 263.836H895.458L890.451 271.626L881.41 237.27H880.714Z" fill="url(#paint10_linear_79_757)"/>
</g>
<defs>
<linearGradient id="paint0_linear_79_757" x1="103.396" y1="467.349" x2="1313.83" y2="509.659" gradientUnits="userSpaceOnUse">
<stop stop-color="#16E090"/>
<stop offset="1" stop-color="#2DF1E5"/>
</linearGradient>
<linearGradient id="paint1_linear_79_757" x1="103.396" y1="467.349" x2="1313.83" y2="509.659" gradientUnits="userSpaceOnUse">
<stop stop-color="#16E090"/>
<stop offset="1" stop-color="#2DF1E5"/>
</linearGradient>
<linearGradient id="paint2_linear_79_757" x1="103.396" y1="467.349" x2="1313.83" y2="509.659" gradientUnits="userSpaceOnUse">
<stop stop-color="#16E090"/>
<stop offset="1" stop-color="#2DF1E5"/>
</linearGradient>
<linearGradient id="paint3_linear_79_757" x1="103.396" y1="467.349" x2="1313.83" y2="509.659" gradientUnits="userSpaceOnUse">
<stop stop-color="#16E090"/>
<stop offset="1" stop-color="#2DF1E5"/>
</linearGradient>
<linearGradient id="paint4_linear_79_757" x1="103.396" y1="467.349" x2="1313.83" y2="509.659" gradientUnits="userSpaceOnUse">
<stop stop-color="#16E090"/>
<stop offset="1" stop-color="#2DF1E5"/>
</linearGradient>
<linearGradient id="paint5_linear_79_757" x1="103.396" y1="467.349" x2="1313.83" y2="509.659" gradientUnits="userSpaceOnUse">
<stop stop-color="#16E090"/>
<stop offset="1" stop-color="#2DF1E5"/>
</linearGradient>
<linearGradient id="paint6_linear_79_757" x1="496.942" y1="244.963" x2="934.162" y2="256.273" gradientUnits="userSpaceOnUse">
<stop stop-color="#16E090"/>
<stop offset="1" stop-color="#2DF1E5"/>
</linearGradient>
<linearGradient id="paint7_linear_79_757" x1="496.942" y1="244.963" x2="934.162" y2="256.273" gradientUnits="userSpaceOnUse">
<stop stop-color="#16E090"/>
<stop offset="1" stop-color="#2DF1E5"/>
</linearGradient>
<linearGradient id="paint8_linear_79_757" x1="496.942" y1="244.963" x2="934.162" y2="256.273" gradientUnits="userSpaceOnUse">
<stop stop-color="#16E090"/>
<stop offset="1" stop-color="#2DF1E5"/>
</linearGradient>
<linearGradient id="paint9_linear_79_757" x1="496.942" y1="244.963" x2="934.162" y2="256.273" gradientUnits="userSpaceOnUse">
<stop stop-color="#16E090"/>
<stop offset="1" stop-color="#2DF1E5"/>
</linearGradient>
<linearGradient id="paint10_linear_79_757" x1="496.942" y1="244.963" x2="934.162" y2="256.273" gradientUnits="userSpaceOnUse">
<stop stop-color="#16E090"/>
<stop offset="1" stop-color="#2DF1E5"/>
</linearGradient>
<clipPath id="clip0_79_757">
<rect width="1440" height="800" fill="white"/>
</clipPath>
</defs>
</svg>
