<svg width="600" height="171" viewBox="0 0 600 171" fill="none" xmlns="http://www.w3.org/2000/svg">
<path d="M0 132H30V169.7H0V132Z" fill="white"/>
<path d="M38 94H68V169.5H38V94Z" fill="white"/>
<path d="M76 151H106V169.9H76V151Z" fill="white"/>
<path d="M114 56H144V169.2H114V56Z" fill="white"/>
<path d="M152 113H182V169.6H152V113Z" fill="white"/>
<path d="M190 19H220V169.9H190V19Z" fill="white"/>
<path d="M228 0H258V169.8H228V0Z" fill="white"/>
<path d="M266 38H296V170.1H266V38Z" fill="white"/>
<path d="M304 113H334V169.6H304V113Z" fill="white"/>
<path d="M342 151H372V169.9H342V151Z" fill="white"/>
<path d="M380 132H410V169.7H380V132Z" fill="white"/>
<path d="M418 113H448V169.6H418V113Z" fill="white"/>
<path d="M456 151H486V169.9H456V151Z" fill="white"/>
<path d="M494 151H524V169.9H494V151Z" fill="white"/>
<path d="M532 151H562V169.9H532V151Z" fill="white"/>
<path d="M570 151H600V169.9H570V151Z" fill="white"/>
</svg>
