<svg width="300" height="97" viewBox="0 0 300 97" fill="none" xmlns="http://www.w3.org/2000/svg">
<path d="M0 95.6043L7.82514 46.3478H20.9602L30.6019 79.8143H28.2264L48.4879 46.3478H61.623L53.7979 95.6043H40.1737L44.3658 68.9849H47.7194L30.9512 95.6043H22.637L14.2529 68.9849H17.8162L13.6241 95.6043H0Z" fill="url(#paint0_linear_79_753)"/>
<path d="M59.8485 95.6043L91.0792 46.3478H103.306L119.026 95.6043H104.424L100.651 82.2597L105.681 86.4517H77.1057L83.3239 82.2597L75.359 95.6043H59.8485ZM95.2014 61.7187L85.2802 78.9759L83.813 75.0633H102.607L100.092 78.9759L95.5507 61.7187H95.2014Z" fill="url(#paint1_linear_79_753)"/>
<path d="M130.36 95.6043L136.229 58.5048H121.976L123.932 46.3478H167.529L165.573 58.5048H151.32L145.451 95.6043H130.36Z" fill="url(#paint2_linear_79_753)"/>
<path d="M192.849 96.4427C186.887 96.4427 181.996 95.255 178.177 92.8795C174.358 90.504 171.656 87.2901 170.072 83.2378C168.535 79.1389 168.163 74.5742 168.955 69.5438C169.746 64.4668 171.47 60.135 174.125 56.5485C176.78 52.9154 180.203 50.1673 184.395 48.3041C188.634 46.3944 193.431 45.4628 198.788 45.5094C201.909 45.556 204.773 45.9752 207.382 46.767C209.99 47.5589 212.133 48.5603 213.809 49.7713L208.989 61.5789C207.125 60.5076 205.379 59.7391 203.748 59.2733C202.165 58.8075 200.325 58.5746 198.229 58.5746C194.689 58.5746 191.685 59.5528 189.216 61.5091C186.794 63.4188 185.28 66.2367 184.675 69.963C184.255 72.7577 184.372 75.1565 185.024 77.1593C185.676 79.1622 186.841 80.6993 188.517 81.7706C190.194 82.8419 192.337 83.3775 194.945 83.3775C196.855 83.3775 198.741 83.1214 200.604 82.609C202.514 82.0501 204.564 81.0719 206.753 79.6746L210.456 91.4821C207.987 93.0658 205.262 94.3001 202.281 95.1851C199.3 96.0235 196.156 96.4427 192.849 96.4427Z" fill="url(#paint3_linear_79_753)"/>
<path d="M218.041 95.6043L225.866 46.3478H240.958L238.023 64.5133H254.861L257.796 46.3478H272.887L265.062 95.6043H249.971L252.975 76.81H236.137L233.133 95.6043H218.041Z" fill="url(#paint4_linear_79_753)"/>
<path d="M281.765 77.7881L282.184 46.3478H300L290.498 77.7881H281.765ZM275.896 95.6043L278.201 81.1418H292.943L290.638 95.6043H275.896Z" fill="url(#paint5_linear_79_753)"/>
<path d="M95.8913 24.6621L99.7437 0.412754H107.173L103.321 24.6621H95.8913Z" fill="url(#paint6_linear_79_753)"/>
<path d="M113.091 24.6621L115.98 6.3977H108.963L109.926 0.412754H131.389L130.426 6.3977H123.409L120.52 24.6621H113.091Z" fill="url(#paint7_linear_79_753)"/>
<path d="M135.451 13.2769L133.181 10.8348C134.213 9.96344 134.981 9.17233 135.485 8.46147C135.99 7.75062 136.357 6.85631 136.586 5.77857L137.824 7.53277H132.803L133.938 0.412754H141.195L140.404 5.36581C140.244 6.42063 139.98 7.39519 139.613 8.28949C139.269 9.16086 138.765 9.99784 138.1 10.8004C137.457 11.603 136.575 12.4285 135.451 13.2769Z" fill="url(#paint8_linear_79_753)"/>
<path d="M150.896 25.0749C149.131 25.0749 147.388 24.8799 145.668 24.4901C143.971 24.0774 142.584 23.5385 141.506 22.8735L143.742 17.1637C144.751 17.6453 145.955 18.081 147.353 18.4708C148.775 18.8606 150.185 19.0555 151.584 19.0555C152.937 19.0555 153.866 18.9179 154.37 18.6428C154.875 18.3447 155.161 17.9778 155.23 17.5421C155.276 17.1752 155.184 16.8656 154.955 16.6134C154.749 16.3382 154.301 16.1433 153.614 16.0286L149.383 15.2719C147.388 14.905 145.829 14.0795 144.705 12.7954C143.604 11.4883 143.214 9.82586 143.535 7.80794C143.811 6.15692 144.453 4.75814 145.462 3.6116C146.494 2.44213 147.835 1.54783 149.486 0.928697C151.16 0.309566 153.086 0 155.265 0C156.778 0 158.269 0.183446 159.736 0.550339C161.204 0.894301 162.362 1.39878 163.21 2.06377L160.871 7.63596C160.092 7.17735 159.163 6.79899 158.085 6.50089C157.03 6.17986 155.826 6.01934 154.473 6.01934C153.327 6.01934 152.444 6.15692 151.825 6.43209C151.229 6.68433 150.885 7.07416 150.793 7.60157C150.747 7.89967 150.839 8.20923 151.068 8.53027C151.298 8.8513 151.791 9.08061 152.547 9.21819L156.709 9.94051C158.819 10.3074 160.39 11.1329 161.422 12.417C162.476 13.7012 162.843 15.3407 162.522 17.3357C162.293 18.8491 161.685 20.1906 160.699 21.3601C159.736 22.5295 158.429 23.4468 156.778 24.1118C155.127 24.7538 153.166 25.0749 150.896 25.0749Z" fill="url(#paint9_linear_79_753)"/>
<path d="M172.443 24.6621L187.818 0.412754H193.837L201.576 24.6621H194.388L192.53 18.0924L195.007 20.1562H180.939L184 18.0924L180.079 24.6621H172.443ZM189.847 7.97993L184.963 16.4758L184.241 14.5496H193.493L192.255 16.4758L190.019 7.97993H189.847Z" fill="url(#paint10_linear_79_753)"/>
<defs>
<linearGradient id="paint0_linear_79_753" x1="-2.37496" y1="64.8761" x2="296.952" y2="75.3388" gradientUnits="userSpaceOnUse">
<stop stop-color="#16E090"/>
<stop offset="1" stop-color="#2DF1E5"/>
</linearGradient>
<linearGradient id="paint1_linear_79_753" x1="-2.37496" y1="64.8761" x2="296.952" y2="75.3388" gradientUnits="userSpaceOnUse">
<stop stop-color="#16E090"/>
<stop offset="1" stop-color="#2DF1E5"/>
</linearGradient>
<linearGradient id="paint2_linear_79_753" x1="-2.37496" y1="64.8761" x2="296.952" y2="75.3388" gradientUnits="userSpaceOnUse">
<stop stop-color="#16E090"/>
<stop offset="1" stop-color="#2DF1E5"/>
</linearGradient>
<linearGradient id="paint3_linear_79_753" x1="-2.37496" y1="64.8761" x2="296.952" y2="75.3388" gradientUnits="userSpaceOnUse">
<stop stop-color="#16E090"/>
<stop offset="1" stop-color="#2DF1E5"/>
</linearGradient>
<linearGradient id="paint4_linear_79_753" x1="-2.37496" y1="64.8761" x2="296.952" y2="75.3388" gradientUnits="userSpaceOnUse">
<stop stop-color="#16E090"/>
<stop offset="1" stop-color="#2DF1E5"/>
</linearGradient>
<linearGradient id="paint5_linear_79_753" x1="-2.37496" y1="64.8761" x2="296.952" y2="75.3388" gradientUnits="userSpaceOnUse">
<stop stop-color="#16E090"/>
<stop offset="1" stop-color="#2DF1E5"/>
</linearGradient>
<linearGradient id="paint6_linear_79_753" x1="94.9445" y1="9.88247" x2="203.064" y2="12.6794" gradientUnits="userSpaceOnUse">
<stop stop-color="#16E090"/>
<stop offset="1" stop-color="#2DF1E5"/>
</linearGradient>
<linearGradient id="paint7_linear_79_753" x1="94.9445" y1="9.88247" x2="203.064" y2="12.6794" gradientUnits="userSpaceOnUse">
<stop stop-color="#16E090"/>
<stop offset="1" stop-color="#2DF1E5"/>
</linearGradient>
<linearGradient id="paint8_linear_79_753" x1="94.9445" y1="9.88247" x2="203.064" y2="12.6794" gradientUnits="userSpaceOnUse">
<stop stop-color="#16E090"/>
<stop offset="1" stop-color="#2DF1E5"/>
</linearGradient>
<linearGradient id="paint9_linear_79_753" x1="94.9445" y1="9.88247" x2="203.064" y2="12.6794" gradientUnits="userSpaceOnUse">
<stop stop-color="#16E090"/>
<stop offset="1" stop-color="#2DF1E5"/>
</linearGradient>
<linearGradient id="paint10_linear_79_753" x1="94.9445" y1="9.88247" x2="203.064" y2="12.6794" gradientUnits="userSpaceOnUse">
<stop stop-color="#16E090"/>
<stop offset="1" stop-color="#2DF1E5"/>
</linearGradient>
</defs>
</svg>
