<svg width="600" height="114" viewBox="0 0 600 114" fill="none" xmlns="http://www.w3.org/2000/svg">
<path d="M0 94H30V112.9H0V94Z" fill="white"/>
<path d="M38 37H68V112.5H38V37Z" fill="white"/>
<path d="M114 94H144V112.9H114V94Z" fill="white"/>
<path d="M190 75H220V112.7H190V75Z" fill="white"/>
<path d="M228 0H258V113.2H228V0Z" fill="white"/>
<path d="M266 94H296V112.9H266V94Z" fill="white"/>
<path d="M342 94H372V112.9H342V94Z" fill="white"/>
<path d="M380 75H410V112.7H380V75Z" fill="white"/>
<path d="M418 94H448V112.9H418V94Z" fill="white"/>
<path d="M456 94H486V112.9H456V94Z" fill="white"/>
<path d="M532 94H562V112.9H532V94Z" fill="white"/>
</svg>
